<svg version="1" xmlns="http://www.w3.org/2000/svg" width="149.333" height="149.333" viewBox="0 0 112.000000 112.000000"><path d="M76.7 4.4c-8.9 3.2-16.9 11.8-18.8 20.3-.7 2.9-1.4 5.3-1.6 5.3-1.2 0-5.2-2.7-8-5.4-1.7-1.7-4.7-3.6-6.5-4.2-7.5-2.8-18.6-.7-23 4.2-1.6 1.8-1.6 2.1.7 5.1 5.7 7.2 17.2 9.3 26.1 4.8 2.7-1.4 5.2-2.5 5.6-2.5.4 0 2.3 1.3 4.1 3 6.4 5.6 7.2 15.6 2.3 28.9-1.9 5.2-2.1 7.2-1.4 9.9.5 1.9.7 4.3.5 5.3-.3 1.1-.2 2.1.3 2.4 1 .6 2.8-4 3.4-9 .3-2.2 1.4-5.8 2.5-8 3.8-7.9 4.5-19.1 1.6-26.1l-1.3-3.2 4.3-.4c12.7-1.5 23.5-12.3 25-25.2.5-4.3.4-4.7-2-5.6-3.6-1.4-9.2-1.2-13.8.4z"/><path d="M46.1 76c-4.1 7.7-5.3 16.8-2.8 21.7 5.1 9.8 16.6 12.5 24.7 5.6 8-6.7 8-17.5.1-29.7l-2.6-4-.6 5c-.5 4.8-5.5 16.4-7.1 16.4-.4 0-1.4-1.3-2.2-2.8-.8-1.6-2.1-3.4-3-4.1-1-.8-1.3-2.3-.9-4.4.3-1.8-.1-4.8-.9-6.6l-1.4-3.4-3.3 6.3z"/></svg>